<svg width="250" height="250" viewBox="0 0 250 250" fill="none" xmlns="http://www.w3.org/2000/svg">
<path d="M63.8182 247.043C40.5157 249.661 34.6071 230.265 33.7219 225.276C33.2592 222.6 33.1988 218.053 33.6213 215.84C34.5065 211.274 37.2023 207.512 46.0139 198.539C51.3653 193.067 53.538 191.116 61.1023 185.04C64.0395 182.686 66.6749 180.493 66.9767 180.171C68.2441 178.824 69.7932 176.49 74.3197 169.107C80.8983 158.424 83.8556 154.239 87.5573 150.317C89.9111 147.822 90.7761 146.333 91.0377 144.382C91.2992 142.269 90.9371 140.398 88.8649 133.719C87.5573 129.474 86.1088 124.445 84.8414 119.737C84.3787 118.027 83.7349 115.935 83.413 115.11C82.7491 113.4 81.3811 111.469 80.3953 110.805C78.122 109.276 74.8629 109.236 69.9542 110.664C66.1921 111.771 64.9649 111.972 63.1744 111.811C61.4443 111.67 60.2976 111.228 59.2112 110.282C57.3201 108.612 56.5758 106.6 56.274 102.335C56.0326 99.0361 55.932 98.0905 55.5498 96.1391C55.3687 95.2942 55.3084 94.409 55.3687 94.1877C55.59 93.5238 55.5095 91.6327 55.2681 91.1499C55.1273 90.9085 54.7048 90.3049 54.3226 89.802C53.6989 88.9771 53.6386 88.776 53.7392 88.0517C53.7995 87.6091 54.222 86.4021 54.6646 85.3761C55.9521 82.4187 55.8515 82.1773 52.7131 79.7833C49.6754 77.4697 49.1523 76.4638 50.0174 74.5728C50.4599 73.587 51.5262 72.2994 55.4693 68.0345C61.5047 61.5163 61.4644 61.637 62.3094 49.7272C62.752 43.2493 64.2608 37.6967 66.6749 33.4116C68.1637 30.7561 73.1328 25.1633 79.2888 19.2084C81.1598 17.3978 82.7491 15.9292 82.8497 15.9292C83.0106 15.9292 81.8036 18.1623 81.3207 18.7457C80.8782 19.2688 79.2486 23.2119 78.7255 25.0426C77.78 28.3218 77.2167 32.5667 76.7942 39.7689C76.412 46.3876 75.5268 48.3391 70.437 53.8312C65.7093 58.9412 64.3212 60.6914 64.3212 61.637C64.3212 61.979 66.5744 64.1718 68.2844 65.4594C70.5778 67.1895 70.6583 68.1954 68.908 72.0379C68.6063 72.7018 68.5258 73.2047 68.6063 73.929C68.6867 74.7941 68.8276 75.0355 69.8334 76.0615L70.96 77.2082L70.6382 78.536C70.3163 79.8436 70.3163 79.9442 70.7589 81.7146C71.1612 83.3643 71.2015 83.827 71.0606 86.4021C70.8393 90.9688 71.3423 92.7593 73.4547 94.9723C76.0901 97.7083 77.1563 97.8491 82.8296 96.1995C86.2295 95.1936 86.4508 95.1533 89.4886 95.0527C92.5465 94.932 92.6672 94.9521 93.7536 95.4551C95.9867 96.4811 97.2943 98.1911 98.602 101.792C99.0647 103.12 100.091 106.822 101.942 113.903C102.304 115.291 103.229 118.51 103.994 121.045C104.738 123.6 105.462 126.256 105.563 126.98C105.985 129.837 105.663 132.754 104.758 134.323C102.384 138.427 99.5274 142.229 96.731 144.945C93.9749 147.641 91.3797 150.98 89.4886 154.239C85.8271 160.556 82.6284 165.264 77.9208 171.239C74.1588 176.047 72.147 178.3 67.8418 182.626C62.9934 187.474 58.0846 191.598 53.196 194.918C51.3653 196.165 49.6754 198.016 48.8304 199.706L48.1263 201.114V204.936C48.1464 210.952 48.7298 213.527 51.2244 218.657C52.7333 221.735 53.4977 222.942 55.8717 226.06C57.8834 228.696 58.4669 229.702 60.2976 233.705C61.223 235.737 61.907 238.171 63.0135 243.462C63.4158 245.393 63.778 247.023 63.8182 247.043C63.8584 247.083 66.6749 244.327 70.095 240.907C75.909 235.053 76.5528 234.49 80.4557 231.573C87.6176 226.241 91.6211 224.31 97.415 223.425C98.9641 223.183 100.493 223.123 104.155 223.204L108.882 223.304L117.03 224.712C121.516 225.497 127.713 226.583 130.811 227.147C143.284 229.36 148.454 229.883 160.887 230.205C170.604 230.446 170.543 230.446 170.543 230.607C170.543 230.848 159.479 241.953 158.131 243.06C156.099 244.75 155.616 245.031 154.007 245.454C151.391 246.158 148.112 246.359 141.513 246.218C131.032 245.997 126.425 245.414 109.989 242.175C102.183 240.626 99.7487 240.203 93.5926 239.338C88.8247 238.654 83.8958 238.614 81.3811 239.217C76.2108 240.445 71.1009 242.959 66.1519 246.661L63.8182 247.043Z" fill="#DA222A"/>
<path d="M188.227 182.002C188.167 181.962 185.873 181.902 183.117 181.882C180.341 181.862 177.363 181.781 176.478 181.68C169.879 180.996 163.804 179.83 159.579 178.441C157.406 177.737 153.685 176.389 152.437 175.866C151.934 175.665 150.446 175.082 149.118 174.559C147.79 174.036 145.939 173.311 144.994 172.909C144.048 172.527 142.197 171.762 140.869 171.199C139.542 170.656 138.053 170.032 137.55 169.831C137.047 169.63 136.081 169.227 135.397 168.946C134.713 168.644 133.567 168.201 132.883 167.94C132.179 167.658 131.112 167.256 130.509 167.015C128.557 166.23 123.206 164.439 121.556 164.017C118.82 163.293 115.903 162.951 112.503 162.931C110.733 162.91 108.882 162.971 108.379 163.031C105.724 163.413 104.677 163.594 103.611 163.876C103.35 163.936 102.988 164.037 102.806 164.077C101.921 164.299 99.9095 165.003 99.3462 165.305C99.0042 165.465 98.7225 165.566 98.7225 165.506C98.7225 165.445 97.3344 166.089 95.6646 166.934C91.3393 169.107 88.8648 170.616 85.4447 173.211C82.5478 175.424 82.1052 175.786 79.2686 178.301C78.2023 179.246 77.0958 180.091 76.9148 180.091C76.1905 180.091 88.9855 167.276 94.4978 162.468C95.0007 162.045 95.4433 161.643 95.5037 161.583C96.0468 161.019 99.7284 158.203 101.941 156.634C105.12 154.401 108.882 152.288 111.236 151.403C112.684 150.86 116.104 149.673 116.487 149.592C116.668 149.552 117.01 149.472 117.231 149.432C117.452 149.371 117.694 149.291 117.794 149.25C117.875 149.19 118.297 149.09 118.74 149.029C119.182 148.949 119.685 148.848 119.846 148.808C120.128 148.727 120.913 148.607 122.462 148.405C123.87 148.224 130.046 148.285 132.219 148.486C135.357 148.788 140.366 150.095 143.404 151.383C144.108 151.685 145.497 152.248 147.166 152.912C148.977 153.636 150.325 154.199 151.592 154.763C152.296 155.085 152.94 155.346 153.041 155.346C153.141 155.346 153.805 155.608 154.489 155.93C155.193 156.251 156.4 156.775 157.165 157.117C157.95 157.459 159.197 158.002 159.941 158.344C160.686 158.686 161.39 158.967 161.49 158.967C161.591 158.967 162.255 159.229 162.939 159.551C163.643 159.873 164.709 160.335 165.313 160.577C165.916 160.818 166.741 161.16 167.123 161.321C168.23 161.804 173.501 163.514 175.271 163.997C179.093 165.003 183.861 165.948 186.939 166.31C187.503 166.371 188.267 166.471 188.649 166.512C190.782 166.793 196.435 166.974 207.761 167.115C212.791 167.196 216.955 167.276 216.995 167.316C217.136 167.477 213.837 171.44 208.747 177.214C206.273 180.011 205.669 180.614 204.583 181.238C203.657 181.801 203.597 181.801 199.111 181.942C193.558 182.103 188.348 182.143 188.227 182.002Z" fill="#DA222A"/>
<path d="M110.874 107.164C111.055 106.661 117.654 98.9758 119.082 97.5877C120.671 96.0386 121.898 95.3949 125.761 94.0671C128.236 93.202 145.537 87.2874 155.656 83.8271C165.092 80.6082 169.638 78.7172 177.585 74.7539C186.034 70.5493 188.167 69.0606 189.474 66.566C190.943 63.7495 191.285 61.8785 191.285 57.0502C191.285 53.0669 191.084 51.558 190.219 48.9226C187.282 39.95 178.45 30.4946 167.626 24.7611C165.554 23.6546 160.243 21.4617 156.863 20.2949C149.359 17.6997 141.815 16.3518 130.308 15.5068C123.488 15.024 110.753 15.8287 102.646 17.2571C99.2458 17.8606 95.7251 18.5245 95.2624 18.6653C94.3169 18.947 95.0411 17.9411 99.286 13.0122C104.014 7.56028 104.416 7.17804 105.945 6.59462C109.506 5.22661 120.51 3.55683 129.302 3.03376C135.88 2.65152 148.957 3.074 154.449 3.8586C170 6.05144 180.864 10.7993 191.225 19.9328C192.774 21.3008 196.938 26.0084 198.085 27.6781C199.232 29.3278 202.31 35.6448 202.913 37.556C203.235 38.5619 203.597 40.3323 203.738 41.4991C204.06 44.3156 203.899 49.9687 203.456 51.6385C202.973 53.3485 201.626 56.0644 200.539 57.4727C198.407 60.2691 192.331 67.0086 188.67 70.6499C182.212 77.1077 178.852 79.7834 171.751 84.1892C165.635 87.9714 152.96 93.4233 139.361 98.1108C128.96 101.692 111.377 107.466 110.874 107.466C110.814 107.466 110.793 107.325 110.874 107.164Z" fill="#DA222A"/>
</svg>
