<svg width="250" height="250" viewBox="0 0 250 250" fill="none" xmlns="http://www.w3.org/2000/svg">
<path d="M71.0928 248.193C70.9053 247.299 70.5736 244.27 70.4294 242.02C70.213 238.703 70.3428 230.742 70.6457 228.32C72.3475 214.763 72.3907 212.499 71.3091 199.331C71.0783 196.519 70.7755 192.784 70.6601 191.039C69.9678 181.607 68.6699 177.295 64.9346 172.045C61.6752 167.473 60.2475 164.488 59.6129 160.911C59.2812 158.993 59.2379 155.734 59.5408 154.147C60.1753 150.874 62.1079 148.177 68.4247 141.745C72.2609 137.822 73.8185 136.423 79.2412 132.067C81.3468 130.38 83.236 128.808 83.4524 128.577C84.361 127.611 85.4714 125.938 88.7164 120.645C93.4324 112.987 95.5524 109.987 98.206 107.175C99.8934 105.387 100.514 104.32 100.701 102.921C100.889 101.406 100.629 100.065 99.1435 95.2771C98.206 92.234 97.1676 88.6285 96.2591 85.2538C95.9274 84.0279 95.4659 82.5281 95.2351 81.9368C94.7592 80.7109 93.7785 79.3264 93.0718 78.8505C91.4421 77.7544 89.1058 77.7255 85.5868 78.7495C82.8899 79.5427 82.0102 79.6869 80.7266 79.5716C79.4863 79.4706 78.6643 79.1533 77.8855 78.4755C76.5298 77.2785 75.9962 75.8363 75.7799 72.7788C75.6068 70.4136 75.5347 69.7358 75.2607 68.3369C75.1309 67.7311 75.0876 67.0966 75.1309 66.9379C75.2895 66.462 75.2319 65.1063 75.0588 64.7602C74.9578 64.5872 74.655 64.1545 74.381 63.7939C73.9339 63.2026 73.8906 63.0584 73.9627 62.5392C74.006 62.222 74.3089 61.3566 74.6261 60.6211C75.5491 58.5011 75.477 58.328 73.2272 56.6118C71.0495 54.9533 70.6745 54.2322 71.2947 52.8765C71.612 52.1699 72.3763 51.2468 75.203 48.1894C79.5296 43.5167 79.5008 43.6032 80.1065 35.0654C80.4238 30.4216 81.5054 26.4411 83.236 23.3692C84.3033 21.4655 87.8655 17.4562 92.2786 13.1873C93.6198 11.8894 94.7592 10.8365 94.8313 10.8365C94.9467 10.8365 94.0813 12.4374 93.7352 12.8556C93.4179 13.2306 92.2498 16.0573 91.8748 17.3697C91.197 19.7205 90.7931 22.7635 90.4903 27.9266C90.2163 32.6714 89.5817 34.0703 85.9329 38.0075C82.5438 41.6707 81.5487 42.9254 81.5487 43.6032C81.5487 43.8484 83.1639 45.4204 84.3898 46.3434C86.0339 47.5837 86.0916 48.3048 84.8369 51.0594C84.6205 51.5353 84.5629 51.8958 84.6205 52.415C84.6782 53.0352 84.7792 53.2082 85.5003 53.9438L86.3079 54.7658L86.0772 55.7177C85.8464 56.6551 85.8464 56.7272 86.1637 57.9963C86.4521 59.1789 86.481 59.5106 86.38 61.3566C86.2214 64.6304 86.5819 65.914 88.0962 67.5004C89.9855 69.4618 90.7499 69.5627 94.8169 68.3801C97.2542 67.659 97.4128 67.6302 99.5905 67.5581C101.783 67.4715 101.869 67.486 102.648 67.8465C104.249 68.582 105.186 69.8079 106.124 72.3894C106.455 73.3413 107.191 75.9949 108.518 81.0714C108.777 82.0666 109.441 84.3741 109.989 86.1912C110.522 88.0228 111.042 89.9265 111.114 90.4457C111.417 92.4936 111.186 94.5848 110.537 95.7097C108.835 98.6518 106.787 101.378 104.782 103.325C102.807 105.257 100.946 107.651 99.5905 109.987C96.9657 114.516 94.6726 117.891 91.2979 122.174C88.601 125.621 87.1588 127.236 84.0725 130.337C80.5968 133.813 77.0779 136.769 73.5733 139.149C72.2609 140.043 71.0495 141.37 70.4438 142.581L69.939 143.591V146.331C69.9534 150.643 70.3717 152.489 72.16 156.167C73.2416 158.373 73.7897 159.238 75.4915 161.474C76.9337 163.363 77.3519 164.084 78.6643 166.954C79.3277 168.411 79.818 170.156 80.6112 173.949C80.8997 175.333 81.1593 176.501 81.1881 176.516C81.217 176.545 83.236 174.569 85.6878 172.117C89.8557 167.92 90.3172 167.517 93.1151 165.425C98.2493 161.604 101.119 160.219 105.273 159.585C106.383 159.411 107.479 159.368 110.104 159.426L113.493 159.498L119.334 160.508C122.55 161.07 126.992 161.849 129.213 162.253C138.155 163.839 141.861 164.214 150.774 164.445C157.74 164.618 157.697 164.618 157.697 164.733C157.697 164.906 149.764 172.867 148.798 173.66C147.342 174.872 146.995 175.074 145.842 175.377C143.967 175.881 141.616 176.026 136.886 175.925C129.372 175.766 126.069 175.348 114.286 173.026C108.691 171.915 106.946 171.612 102.533 170.992C99.1146 170.502 95.5812 170.473 93.7785 170.906C90.072 171.785 86.4089 173.588 82.8611 176.242L81.2314 177.468L81.3179 178.924C81.3612 179.718 81.5054 181.866 81.6208 183.684C82.1544 191.991 82.5582 199.317 82.5582 200.601C82.5582 202.591 82.1832 208.143 81.765 212.383C81.1016 219.118 80.6689 225.536 80.7555 227.238C80.7987 228.118 81.0439 230.858 81.2891 233.324C81.6929 237.333 81.7217 237.896 81.5487 238.429C81.2891 239.179 80.6545 240.16 79.8901 240.939C78.8085 242.049 71.4389 248.51 71.2658 248.51C71.2081 248.51 71.136 248.366 71.0928 248.193Z" fill="#DA222A"/>
<path d="M170.373 129.89C170.33 129.861 168.686 129.818 166.71 129.803C164.72 129.789 162.586 129.731 161.951 129.659C157.221 129.169 152.865 128.332 149.837 127.337C148.279 126.832 145.611 125.866 144.717 125.491C144.356 125.347 143.289 124.929 142.337 124.554C141.385 124.179 140.059 123.659 139.381 123.371C138.703 123.097 137.376 122.549 136.424 122.145C135.472 121.756 134.405 121.309 134.045 121.165C133.684 121.02 132.992 120.732 132.501 120.53C132.011 120.314 131.189 119.996 130.699 119.809C130.194 119.607 129.43 119.318 128.997 119.145C127.598 118.583 123.762 117.299 122.579 116.997C120.618 116.477 118.527 116.232 116.089 116.218C114.82 116.203 113.493 116.247 113.133 116.29C111.229 116.564 110.479 116.694 109.715 116.896C109.527 116.939 109.268 117.011 109.138 117.04C108.503 117.198 107.061 117.703 106.657 117.92C106.412 118.035 106.21 118.107 106.21 118.064C106.21 118.021 105.215 118.482 104.018 119.088C100.917 120.645 99.1435 121.727 96.6917 123.587C94.615 125.174 94.2977 125.433 92.2642 127.236C91.4998 127.914 90.7066 128.52 90.5768 128.52C90.0576 128.52 99.23 119.333 103.182 115.886C103.542 115.583 103.859 115.295 103.903 115.252C104.292 114.848 106.931 112.829 108.518 111.704C110.796 110.103 113.493 108.589 115.181 107.954C116.219 107.565 118.671 106.714 118.945 106.656C119.075 106.627 119.32 106.569 119.478 106.541C119.637 106.497 119.81 106.44 119.882 106.411C119.94 106.368 120.243 106.295 120.56 106.252C120.877 106.195 121.238 106.122 121.353 106.094C121.555 106.036 122.118 105.949 123.228 105.805C124.238 105.675 128.665 105.719 130.223 105.863C132.473 106.079 136.064 107.017 138.241 107.94C138.746 108.156 139.741 108.56 140.938 109.036C142.236 109.555 143.203 109.959 144.111 110.362C144.616 110.593 145.077 110.781 145.149 110.781C145.222 110.781 145.698 110.968 146.188 111.199C146.693 111.43 147.558 111.805 148.106 112.05C148.668 112.295 149.563 112.684 150.096 112.93C150.63 113.175 151.135 113.377 151.207 113.377C151.279 113.377 151.755 113.564 152.245 113.795C152.75 114.026 153.514 114.357 153.947 114.53C154.38 114.703 154.971 114.949 155.245 115.064C156.038 115.41 159.817 116.636 161.086 116.982C163.826 117.703 167.244 118.381 169.45 118.641C169.854 118.684 170.402 118.756 170.676 118.785C172.205 118.987 176.258 119.117 184.377 119.218C187.983 119.275 190.968 119.333 190.997 119.362C191.098 119.477 188.733 122.318 185.084 126.457C183.31 128.462 182.877 128.895 182.098 129.342C181.435 129.746 181.392 129.746 178.176 129.847C174.195 129.962 170.46 129.991 170.373 129.89Z" fill="#DA222A"/>
<path d="M114.921 76.2401C115.051 75.8796 119.781 70.3704 120.805 69.3753C121.945 68.2648 122.824 67.8033 125.593 66.8514C127.367 66.2313 139.77 61.9912 147.024 59.5106C153.788 57.2031 157.048 55.8475 162.744 53.0063C168.802 49.9922 170.33 48.9249 171.268 47.1366C172.321 45.1175 172.566 43.7763 172.566 40.315C172.566 37.4595 172.422 36.3778 171.801 34.4886C169.696 28.0564 163.365 21.2781 155.606 17.1678C154.12 16.3746 150.313 14.8026 147.89 13.9661C142.51 12.1057 137.102 11.1394 128.853 10.5337C123.964 10.1876 114.835 10.7645 109.023 11.7884C106.585 12.2211 104.061 12.697 103.73 12.798C103.052 12.9999 103.571 12.2788 106.614 8.74538C110.003 4.83703 110.292 4.56302 111.388 4.14478C113.941 3.16409 121.829 1.96707 128.132 1.5921C132.848 1.31808 142.222 1.62094 146.159 2.1834C157.307 3.75539 165.095 7.15897 172.522 13.7065C173.633 14.6872 176.618 18.062 177.44 19.259C178.262 20.4416 180.469 24.9701 180.902 26.3402C181.132 27.0613 181.392 28.3304 181.493 29.1669C181.724 31.1859 181.608 35.2385 181.291 36.4355C180.945 37.6614 179.979 39.6084 179.2 40.6179C177.671 42.6225 173.316 47.4539 170.691 50.0643C166.061 54.6937 163.653 56.6118 158.562 59.7702C154.178 62.4816 145.092 66.3899 135.343 69.7502C127.887 72.3173 115.282 76.4564 114.921 76.4564C114.878 76.4564 114.864 76.3555 114.921 76.2401Z" fill="#DA222A"/>
</svg>
